<?xml version="1.0" encoding="utf-8"?>
<!-- Generator: Adobe Illustrator 24.1.3, SVG Export Plug-In . SVG Version: 6.00 Build 0)  -->
<svg version="1.1" id="Layer_1" xmlns="http://www.w3.org/2000/svg" xmlns:xlink="http://www.w3.org/1999/xlink" x="0px" y="0px"
	 viewBox="0 0 600 600" style="enable-background:new 0 0 600 600;" xml:space="preserve">
<style type="text/css">
	.st0{opacity:0.3;fill:#6C63FF;enable-background:new    ;}
	.st1{fill:#6C63FF;}
	.st2{opacity:0.1;enable-background:new    ;}
	.st3{fill:#F2F2F2;}
	.st4{fill:#3F3D56;}
</style>
<circle class="st0" cx="309.69" cy="319.74" r="158.8"/>
<polygon class="st1" points="244.49,117.74 138.79,246.04 295.29,430.64 399.59,308.04 "/>
<polygon class="st2" points="244.49,117.74 138.79,246.04 295.29,430.64 399.59,308.04 "/>
<path class="st3" d="M142.99,247.44L142.99,247.44c2.3-4.2,5.2-8.1,8.6-11.5l97.1-98.4c0,0,33.8-5.6,40.9,11.3l-124,101.5
	L142.99,247.44z"/>
<path class="st1" d="M138.09,245.34l143.8,219.9c0,0,14.1,9.9,28.2,4.2l147.3-99.4l-156.5-236.8l-141,109.9L138.09,245.34z"/>
<rect x="183.28" y="199.79" transform="matrix(0.8121 -0.5835 0.5835 0.8121 -72.3758 177.115)" class="st4" width="111.1" height="2.3"/>
<rect x="248.99" y="239.45" transform="matrix(0.8341 -0.5517 0.5517 0.8341 -149.7867 195.5338)" class="st4" width="2.3" height="214.61"/>
<rect x="311.88" y="405.56" transform="matrix(0.8055 -0.5926 0.5926 0.8055 -168.7819 299.1859)" class="st4" width="119" height="2.3"/>
<rect x="359.7" y="152" transform="matrix(0.8208 -0.5713 0.5713 0.8208 -83.4831 252.6289)" class="st4" width="2.3" height="214.71"/>
<rect x="131.53" y="187.01" transform="matrix(0.7367 -0.6762 0.6762 0.7367 -72.3669 189.5533)" class="st4" width="151.4" height="1.4"/>
<rect x="136.29" y="188.24" transform="matrix(0.7497 -0.6618 0.6618 0.7497 -71.4628 188.9433)" class="st4" width="155.5" height="1.4"/>
<rect x="140.25" y="189.26" transform="matrix(0.7681 -0.6403 0.6403 0.7681 -70.8505 184.2769)" class="st4" width="157.5" height="1.4"/>
</svg>
